<?xml version="1.0" encoding="UTF-8" standalone="no"?>
<!-- Svg Vector Icons : http://www.onlinewebfonts.com/icon -->

<svg
   version="1.1"
   x="0px"
   y="0px"
   viewBox="0 0 1000 1000"
   enable-background="new 0 0 1000 1000"
   xml:space="preserve"
   id="svg18"
   sodipodi:docname="87fc9ad6d0953f556f3f0d36a9e6abee.svg"
   inkscape:version="1.2.1 (9c6d41e, 2022-07-14)"
   xmlns:inkscape="http://www.inkscape.org/namespaces/inkscape"
   xmlns:sodipodi="http://sodipodi.sourceforge.net/DTD/sodipodi-0.dtd"
   xmlns="http://www.w3.org/2000/svg"
   xmlns:svg="http://www.w3.org/2000/svg"><defs
   id="defs22" /><sodipodi:namedview
   id="namedview20"
   pagecolor="#ffffff"
   bordercolor="#000000"
   borderopacity="0.25"
   inkscape:showpageshadow="2"
   inkscape:pageopacity="0.0"
   inkscape:pagecheckerboard="0"
   inkscape:deskcolor="#d1d1d1"
   showgrid="false"
   inkscape:zoom="0.236"
   inkscape:cx="500"
   inkscape:cy="500"
   inkscape:window-width="1309"
   inkscape:window-height="456"
   inkscape:window-x="0"
   inkscape:window-y="25"
   inkscape:window-maximized="0"
   inkscape:current-layer="svg18" />
<metadata
   id="metadata2"> Svg Vector Icons : http://www.onlinewebfonts.com/icon </metadata>
<g
   id="g16"
   style="fill:#ffffff"><g
     transform="translate(0.000000,511.000000) scale(0.100000,-0.100000)"
     id="g14"
     style="fill:#ffffff"><path
       d="M2073.4,2345.4c-494.1-63.2-972.9-312.2-1342.5-697.1C401.5,1303.6,192.8,889.9,125.7,437.9C20.4-253.4,240.6-925.6,742.4-1446.5c335.1-346.6,769.9-582.2,1244.8-672.2c103.4-19.2,739.2-24.9,3041.2-24.9h2911l203,51.7c430.9,109.1,768,300.7,1082,616.7c616.7,616.7,827.3,1461.2,565,2265.6c-113,342.8-287.3,620.5-565,898.2c-373.4,373.4-810.1,593.7-1313.8,658.8C7736.4,2370.3,2249.6,2368.4,2073.4,2345.4z M8123.2,1922.1c540.1-147.5,928.8-452,1175.9-921.2C9517.5,587.3,9573,93.2,9454.2-377.9c-172.4-679.9-662.6-1160.6-1365.5-1340.6l-168.5-42.1H5018.8c-2738.6,0-2911,1.9-3064.2,34.5C964.6-1511.6,344.1-590.5,508.8,422.6c114.9,708.6,610.9,1281.2,1283.1,1476.6c281.5,80.4,289.2,80.4,3284.4,78.5l2863.1-3.8L8123.2,1922.1z"
       id="path4"
       style="fill:#ffffff" /><path
       d="M2194.1,1659.8c-773.7-128.3-1354-790.9-1354-1547.4c-1.9-250.9,40.2-423.2,157-666.4c229.8-474.9,651.1-792.9,1170.1-882.9c578.4-99.6,1195,181.9,1543.6,706.7c519,781.4,216.4,1823.2-651.1,2244.5c-97.7,46-231.7,97.7-300.7,114.9C2605.8,1665.5,2322.4,1680.9,2194.1,1659.8z M2730.3,1246.1c407.9-107.2,737.3-450,823.5-861.8c61.3-291.1,19.2-612.8-109.2-858c-34.5-67-120.6-178.1-199.2-256.6c-526.7-534.3-1470.8-429-1855.7,204.9c-122.6,203-153.2,321.7-153.2,622.4c0,231.7,5.7,287.3,46,407.9c132.1,406,488.4,700.9,928.8,771.8C2335.8,1295.9,2594.3,1280.6,2730.3,1246.1z"
       id="path6"
       style="fill:#ffffff" /><path
       d="M5265.9,847.8c-323.7-111.1-534.3-398.3-534.3-731.6c0-256.6,107.3-480.7,298.8-626.2c402.2-302.6,969.1-164.7,1181.6,289.2c69,145.6,88.1,348.5,51.7,524.7C6215.8,537.5,5986,775,5733.2,853.5C5570.4,903.3,5422.9,901.4,5265.9,847.8z M5698.7,529.9c44-19.2,113-74.7,157.1-124.5c157-178.1,157-419.4,0-597.5c-99.6-113-201.1-158.9-344.7-160.9c-266.2,0-461.6,193.4-461.6,459.6c0,189.6,109.2,356.2,283.4,432.8C5419.1,575.8,5606.8,572,5698.7,529.9z"
       id="path8"
       style="fill:#ffffff" /><path
       d="M6445.6,843.9l-47.9-46V110.5c0-662.6,1.9-687.5,38.3-727.7c53.6-57.5,118.7-69,187.7-34.5c80.4,42.1,99.6,114.9,99.6,377.3v227.9h258.5c250.9,0,262.4,1.9,306.4,47.9c63.2,61.3,63.2,149.4,0,210.7c-44,46-55.5,47.9-306.4,47.9h-258.5v151.3v153.2l365.8,5.7l365.8,5.7l46,53.6c61.3,72.8,59.4,137.9-9.6,206.8l-55.5,55.5h-473h-471.1L6445.6,843.9z"
       id="path10"
       style="fill:#ffffff" /><path
       d="M7690.4,843.9l-47.9-46V110.5c0-662.6,1.9-687.5,38.3-727.7c53.6-57.5,118.7-69,187.7-34.5c80.4,42.1,99.6,114.9,99.6,377.3v227.9h258.5c250.9,0,262.4,1.9,306.4,47.9c63.2,61.3,63.2,149.4,0,210.7c-44,46-55.5,47.9-306.4,47.9h-258.5v151.3v153.2l363.9,5.7c346.6,5.7,365.8,7.7,406,47.9c63.2,63.2,57.5,170.4-11.5,227.9c-51.7,46-55.5,46-520.9,46h-469.2L7690.4,843.9z"
       id="path12"
       style="fill:#ffffff" /></g></g>
</svg>
